<svg width="411" height="309" fill="none" xmlns="http://www.w3.org/2000/svg"><path fill="#fcc" d="M0 0h411v309H0z"/><g clip-path="url(#clip0)"><g filter="url(#filter0_d)"><rect x="23.186" y="42" width="364.581" height="229.814" rx="12" fill="#FAF1ED"/></g><path d="M203.349 242.023c42.307 0 76.604-37.472 76.604-83.697H126.744c0 46.225 34.297 83.697 76.605 83.697z" fill="#F2B203"/><mask id="a" maskUnits="userSpaceOnUse" x="20" y="43" width="365" height="231"><rect x="20.349" y="43.419" width="364.581" height="229.814" rx="12" fill="#fff"/></mask><g mask="url(#a)"><path d="M389.445 51.93l-174.893 77.868 5.193 11.664 174.893-77.867-5.193-11.664z" fill="#F2B203"/><path d="M213.695 158.548l-6.706-2.585c-23.92-9.459-39.647-15.525-44.367-28.493-3.851-10.581 1.594-21.839 12.478-25.801 6.145-2.236 12.932-1.614 18.409 1.418 2.247-5.844 7.047-10.683 13.191-12.92 10.884-3.96 22.292 1.163 26.143 11.745 4.721 12.969-3.428 27.725-15.672 50.345l-3.476 6.291z" fill="#FF5D5D"/><path d="M389.081 81.462l-178.956 65.501 4.388 11.989 178.956-65.5-4.388-11.99z" fill="#F2B203"/><path d="M278.535 167.405c-3.121 14.285-10.257 27.407-20.825 38.018-14.626 14.683-34.089 22.783-54.815 22.826h-.142c-36.912 0-67.909-25.947-75.697-60.561l151.479-.283zm18.683-16.91l-188.916.34c.1 52.106 42.36 94.281 94.451 94.281h.17c52.176-.085 94.394-42.459 94.295-94.621z" fill="#F2B203"/></g></g><defs><clipPath id="clip0"><path fill="#fff" d="M0 0h411v286H0z"/></clipPath><filter id="filter0_d" x="19.186" y="42" width="372.581" height="237.814" filterUnits="userSpaceOnUse" color-interpolation-filters="sRGB"><feFlood flood-opacity="0" result="BackgroundImageFix"/><feColorMatrix in="SourceAlpha" values="0 0 0 0 0 0 0 0 0 0 0 0 0 0 0 0 0 0 127 0"/><feOffset dy="4"/><feGaussianBlur stdDeviation="2"/><feColorMatrix values="0 0 0 0 0 0 0 0 0 0 0 0 0 0 0 0 0 0 0.25 0"/><feBlend in2="BackgroundImageFix" result="effect1_dropShadow"/><feBlend in="SourceGraphic" in2="effect1_dropShadow" result="shape"/></filter></defs></svg>
